<svg width="993" height="252" viewBox="0 0 993 252" fill="none" xmlns="http://www.w3.org/2000/svg">
<rect width="14.8004" height="14.8004" transform="matrix(0.867503 0.497432 0.00302628 0.999995 51.6523 174.466)" fill="#448BE7"/>
<rect width="14.8004" height="14.8004" transform="matrix(0.864508 -0.502619 0.00296259 0.999996 64.4922 181.826)" fill="#535AF2"/>
<rect width="14.8004" height="14.8004" transform="matrix(0.86454 -0.502563 0.867535 0.497377 51.6523 174.466)" fill="#2ED6D6"/>
<rect width="14.8004" height="14.8004" transform="matrix(0.867503 0.497432 0.00302628 0.999995 51.6489 159.681)" fill="#448BE7"/>
<rect width="14.8004" height="14.8004" transform="matrix(0.864508 -0.502619 0.00296259 0.999996 64.4888 167.041)" fill="#535AF2"/>
<rect width="14.8004" height="14.8004" transform="matrix(0.86454 -0.502563 0.867535 0.497377 51.6489 159.681)" fill="#2ED6D6"/>
<rect width="14.8004" height="14.8004" transform="matrix(0.867503 0.497432 0.00302628 0.999995 51.5889 144.871)" fill="#448BE7"/>
<rect width="14.8004" height="14.8004" transform="matrix(0.864508 -0.502619 0.00296259 0.999996 64.4287 152.231)" fill="#535AF2"/>
<rect width="14.8004" height="14.8004" transform="matrix(0.86454 -0.502563 0.867535 0.497377 51.5889 144.871)" fill="#2ED6D6"/>
<rect width="14.8004" height="14.8004" transform="matrix(0.867503 0.497432 0.00302628 0.999995 51.5459 130.074)" fill="#448BE7"/>
<rect width="14.8004" height="14.8004" transform="matrix(0.864508 -0.502619 0.00296259 0.999996 64.3857 137.435)" fill="#535AF2"/>
<rect width="14.8004" height="14.8004" transform="matrix(0.86454 -0.502563 0.867535 0.497377 51.5459 130.074)" fill="#2ED6D6"/>
<rect width="14.8004" height="14.8004" transform="matrix(0.867503 0.497432 0.00302628 0.999995 64.5029 181.832)" fill="#448BE7"/>
<rect width="14.8004" height="14.8004" transform="matrix(0.864508 -0.502619 0.00296259 0.999996 77.3428 189.192)" fill="#535AF2"/>
<rect width="14.8004" height="14.8004" transform="matrix(0.86454 -0.502563 0.867535 0.497377 64.5029 181.832)" fill="#2ED6D6"/>
<rect width="14.8004" height="14.8004" transform="matrix(0.867503 0.497432 0.00302628 0.999995 77.3345 189.187)" fill="#448BE7"/>
<rect width="14.8004" height="14.8004" transform="matrix(0.864508 -0.502619 0.00296259 0.999996 90.1743 196.547)" fill="#535AF2"/>
<rect width="14.8004" height="14.8004" transform="matrix(0.86454 -0.502563 0.867535 0.497377 77.3345 189.187)" fill="#2ED6D6"/>
<rect width="14.8004" height="14.8004" transform="matrix(0.867503 0.497432 0.00302628 0.999995 166.957 151.933)" fill="#448BE7"/>
<rect width="14.8004" height="14.8004" transform="matrix(0.864508 -0.502619 0.00296259 0.999996 179.796 159.293)" fill="#535AF2"/>
<rect width="14.8004" height="14.8004" transform="matrix(0.86454 -0.502563 0.867535 0.497377 166.957 151.933)" fill="#2ED6D6"/>
<rect width="14.8004" height="14.8004" transform="matrix(0.867503 0.497432 0.00302628 0.999995 154.162 159.376)" fill="#448BE7"/>
<rect width="14.8004" height="14.8004" transform="matrix(0.864508 -0.502619 0.00296259 0.999996 167.001 166.736)" fill="#535AF2"/>
<rect width="14.8004" height="14.8004" transform="matrix(0.86454 -0.502563 0.867535 0.497377 154.162 159.376)" fill="#2ED6D6"/>
<rect width="14.8004" height="14.8004" transform="matrix(0.867503 0.497432 0.00302628 0.999995 141.367 166.807)" fill="#448BE7"/>
<rect width="14.8004" height="14.8004" transform="matrix(0.864508 -0.502619 0.00296259 0.999996 154.207 174.167)" fill="#535AF2"/>
<rect width="14.8004" height="14.8004" transform="matrix(0.86454 -0.502563 0.867535 0.497377 141.367 166.807)" fill="#2ED6D6"/>
<rect width="14.8004" height="14.8004" transform="matrix(0.867503 0.497432 0.00302628 0.999995 128.57 174.244)" fill="#448BE7"/>
<rect width="14.8004" height="14.8004" transform="matrix(0.864508 -0.502619 0.00296259 0.999996 141.41 181.604)" fill="#535AF2"/>
<rect width="14.8004" height="14.8004" transform="matrix(0.86454 -0.502563 0.867535 0.497377 128.57 174.244)" fill="#2ED6D6"/>
<rect width="14.8004" height="14.8004" transform="matrix(0.867503 0.497432 0.00302628 0.999995 115.775 181.68)" fill="#448BE7"/>
<rect width="14.8004" height="14.8004" transform="matrix(0.864508 -0.502619 0.00296259 0.999996 128.615 189.04)" fill="#535AF2"/>
<rect width="14.8004" height="14.8004" transform="matrix(0.86454 -0.502563 0.867535 0.497377 115.775 181.68)" fill="#2ED6D6"/>
<rect width="14.8004" height="14.8004" transform="matrix(0.867503 0.497432 0.00302628 0.999995 102.98 189.117)" fill="#448BE7"/>
<rect width="14.8004" height="14.8004" transform="matrix(0.864508 -0.502619 0.00296259 0.999996 115.82 196.478)" fill="#535AF2"/>
<rect width="14.8004" height="14.8004" transform="matrix(0.86454 -0.502563 0.867535 0.497377 102.98 189.117)" fill="#2ED6D6"/>
<rect width="14.8004" height="14.8004" transform="matrix(0.867503 0.497432 0.00302628 0.999995 90.1836 196.554)" fill="#448BE7"/>
<rect width="14.8004" height="14.8004" transform="matrix(0.864508 -0.502619 0.00296259 0.999996 103.023 203.914)" fill="#535AF2"/>
<rect width="14.8004" height="14.8004" transform="matrix(0.86454 -0.502563 0.867535 0.497377 90.1836 196.554)" fill="#2ED6D6"/>
<rect width="14.8004" height="14.8004" transform="matrix(0.867503 0.497432 0.00302628 0.999995 166.918 137.143)" fill="#448BE7"/>
<rect width="14.8004" height="14.8004" transform="matrix(0.864508 -0.502619 0.00296259 0.999996 179.758 144.503)" fill="#535AF2"/>
<rect width="14.8004" height="14.8004" transform="matrix(0.86454 -0.502563 0.867535 0.497377 166.918 137.143)" fill="#2ED6D6"/>
<rect width="14.8004" height="14.8004" transform="matrix(0.867503 0.497432 0.00302628 0.999995 166.875 122.339)" fill="#448BE7"/>
<rect width="14.8004" height="14.8004" transform="matrix(0.864508 -0.502619 0.00296259 0.999996 179.715 129.699)" fill="#535AF2"/>
<rect width="14.8004" height="14.8004" transform="matrix(0.86454 -0.502563 0.867535 0.497377 166.875 122.339)" fill="#2ED6D6"/>
<rect width="14.8004" height="14.8004" transform="matrix(0.867503 0.497432 0.00302628 0.999995 166.825 107.536)" fill="#448BE7"/>
<rect width="14.8004" height="14.8004" transform="matrix(0.864508 -0.502619 0.00296259 0.999996 179.665 114.896)" fill="#535AF2"/>
<rect width="14.8004" height="14.8004" transform="matrix(0.86454 -0.502563 0.867535 0.497377 166.825 107.536)" fill="#2ED6D6"/>
<rect width="14.8004" height="14.8004" transform="matrix(0.867503 0.497432 0.00302628 0.999995 154.028 114.972)" fill="#448BE7"/>
<rect width="14.8004" height="14.8004" transform="matrix(0.864508 -0.502619 0.00296259 0.999996 166.868 122.332)" fill="#535AF2"/>
<rect width="14.8004" height="14.8004" transform="matrix(0.86454 -0.502563 0.867535 0.497377 154.028 114.972)" fill="#2ED6D6"/>
<rect width="14.8004" height="14.8004" transform="matrix(0.867503 0.497432 0.00302628 0.999995 141.233 122.41)" fill="#448BE7"/>
<rect width="14.8004" height="14.8004" transform="matrix(0.864508 -0.502619 0.00296259 0.999996 154.073 129.771)" fill="#535AF2"/>
<rect width="14.8004" height="14.8004" transform="matrix(0.86454 -0.502563 0.867535 0.497377 141.233 122.41)" fill="#2ED6D6"/>
<rect width="14.8004" height="14.8004" transform="matrix(0.867503 0.497432 0.00302628 0.999995 128.446 129.839)" fill="#448BE7"/>
<rect width="14.8004" height="14.8004" transform="matrix(0.864508 -0.502619 0.00296259 0.999996 141.286 137.199)" fill="#535AF2"/>
<rect width="14.8004" height="14.8004" transform="matrix(0.86454 -0.502563 0.867535 0.497377 128.446 129.839)" fill="#2ED6D6"/>
<rect width="14.8004" height="14.8004" transform="matrix(0.867503 0.497432 0.00302628 0.999995 115.649 137.283)" fill="#448BE7"/>
<rect width="14.8004" height="14.8004" transform="matrix(0.864508 -0.502619 0.00296259 0.999996 128.489 144.644)" fill="#535AF2"/>
<rect width="14.8004" height="14.8004" transform="matrix(0.86454 -0.502563 0.867535 0.497377 115.649 137.283)" fill="#2ED6D6"/>
<rect width="14.8004" height="14.8004" transform="matrix(0.867503 0.497432 0.00302628 0.999995 102.853 144.719)" fill="#448BE7"/>
<rect width="14.8004" height="14.8004" transform="matrix(0.864508 -0.502619 0.00296259 0.999996 115.693 152.079)" fill="#535AF2"/>
<rect width="14.8004" height="14.8004" transform="matrix(0.86454 -0.502563 0.867535 0.497377 102.853 144.719)" fill="#2ED6D6"/>
<rect width="14.8004" height="14.8004" transform="matrix(0.867503 0.497432 0.00302628 0.999995 128.159 41.043)" fill="#448BE7"/>
<rect width="14.8004" height="14.8004" transform="matrix(0.864508 -0.502619 0.00296259 0.999996 140.999 48.4033)" fill="#535AF2"/>
<rect width="14.8004" height="14.8004" transform="matrix(0.86454 -0.502563 0.867535 0.497377 128.159 41.043)" fill="#2ED6D6"/>
<rect width="14.8004" height="14.8004" transform="matrix(0.867503 0.497432 0.00302628 0.999995 90.0474 152.154)" fill="#448BE7"/>
<rect width="14.8004" height="14.8004" transform="matrix(0.864508 -0.502619 0.00296259 0.999996 102.887 159.515)" fill="#535AF2"/>
<rect width="14.8004" height="14.8004" transform="matrix(0.86454 -0.502563 0.867535 0.497377 90.0474 152.154)" fill="#2ED6D6"/>
<rect width="14.8004" height="14.8004" transform="matrix(0.867503 0.497432 0.00302628 0.999995 90.0024 137.353)" fill="#448BE7"/>
<rect width="14.8004" height="14.8004" transform="matrix(0.864508 -0.502619 0.00296259 0.999996 102.842 144.713)" fill="#535AF2"/>
<rect width="14.8004" height="14.8004" transform="matrix(0.86454 -0.502563 0.867535 0.497377 90.0024 137.353)" fill="#2ED6D6"/>
<rect width="14.8004" height="14.8004" transform="matrix(0.867503 0.497432 0.00302628 0.999995 51.502 115.296)" fill="#448BE7"/>
<rect width="14.8004" height="14.8004" transform="matrix(0.864508 -0.502619 0.00296259 0.999996 64.3418 122.656)" fill="#535AF2"/>
<rect width="14.8004" height="14.8004" transform="matrix(0.86454 -0.502563 0.867535 0.497377 51.502 115.296)" fill="#2ED6D6"/>
<rect width="14.8004" height="14.8004" transform="matrix(0.867503 0.497432 0.00302628 0.999995 89.9595 122.556)" fill="#448BE7"/>
<rect width="14.8004" height="14.8004" transform="matrix(0.864508 -0.502619 0.00296259 0.999996 102.799 129.916)" fill="#535AF2"/>
<rect width="14.8004" height="14.8004" transform="matrix(0.86454 -0.502563 0.867535 0.497377 89.9595 122.556)" fill="#2ED6D6"/>
<rect width="14.8004" height="14.8004" transform="matrix(0.867503 0.497432 0.00302628 0.999995 51.4585 100.493)" fill="#448BE7"/>
<rect width="14.8004" height="14.8004" transform="matrix(0.864508 -0.502619 0.00296259 0.999996 64.2983 107.854)" fill="#535AF2"/>
<rect width="14.8004" height="14.8004" transform="matrix(0.86454 -0.502563 0.867535 0.497377 51.4585 100.493)" fill="#2ED6D6"/>
<rect width="14.8004" height="14.8004" transform="matrix(0.867503 0.497432 0.00302628 0.999995 141.009 48.4121)" fill="#448BE7"/>
<rect width="14.8004" height="14.8004" transform="matrix(0.864508 -0.502619 0.00296259 0.999996 153.849 55.7725)" fill="#535AF2"/>
<rect width="14.8004" height="14.8004" transform="matrix(0.86454 -0.502563 0.867535 0.497377 141.009 48.4121)" fill="#2ED6D6"/>
<rect width="14.8004" height="14.8004" transform="matrix(0.867503 0.497432 0.00302628 0.999995 153.84 55.7715)" fill="#448BE7"/>
<rect width="14.8004" height="14.8004" transform="matrix(0.864508 -0.502619 0.00296259 0.999996 166.68 63.1318)" fill="#535AF2"/>
<rect width="14.8004" height="14.8004" transform="matrix(0.86454 -0.502563 0.867535 0.497377 153.84 55.7715)" fill="#2ED6D6"/>
<rect width="14.8004" height="14.8004" transform="matrix(0.867503 0.497432 0.00302628 0.999995 166.69 63.1377)" fill="#448BE7"/>
<rect width="14.8004" height="14.8004" transform="matrix(0.864508 -0.502619 0.00296259 0.999996 179.53 70.498)" fill="#535AF2"/>
<rect width="14.8004" height="14.8004" transform="matrix(0.86454 -0.502563 0.867535 0.497377 166.69 63.1377)" fill="#2ED6D6"/>
<rect width="14.8004" height="14.8004" transform="matrix(0.867503 0.497432 0.00302628 0.999995 153.894 70.5752)" fill="#448BE7"/>
<rect width="14.8004" height="14.8004" transform="matrix(0.864508 -0.502619 0.00296259 0.999996 166.733 77.9355)" fill="#535AF2"/>
<rect width="14.8004" height="14.8004" transform="matrix(0.86454 -0.502563 0.867535 0.497377 153.894 70.5752)" fill="#2ED6D6"/>
<rect width="14.8004" height="14.8004" transform="matrix(0.867503 0.497432 0.00302628 0.999995 115.393 48.5068)" fill="#448BE7"/>
<rect width="14.8004" height="14.8004" transform="matrix(0.864508 -0.502619 0.00296259 0.999996 128.232 55.8672)" fill="#535AF2"/>
<rect width="14.8004" height="14.8004" transform="matrix(0.86454 -0.502563 0.867535 0.497377 115.393 48.5068)" fill="#2ED6D6"/>
<rect width="14.8004" height="14.8004" transform="matrix(0.867503 0.497432 0.00302628 0.999995 141.098 78.0107)" fill="#448BE7"/>
<rect width="14.8004" height="14.8004" transform="matrix(0.864508 -0.502619 0.00296259 0.999996 153.938 85.3711)" fill="#535AF2"/>
<rect width="14.8004" height="14.8004" transform="matrix(0.86454 -0.502563 0.867535 0.497377 141.098 78.0107)" fill="#2ED6D6"/>
<rect width="14.8004" height="14.8004" transform="matrix(0.867503 0.497432 0.00302628 0.999995 102.597 55.9424)" fill="#448BE7"/>
<rect width="14.8004" height="14.8004" transform="matrix(0.864508 -0.502619 0.00296259 0.999996 115.437 63.3027)" fill="#535AF2"/>
<rect width="14.8004" height="14.8004" transform="matrix(0.86454 -0.502563 0.867535 0.497377 102.597 55.9424)" fill="#2ED6D6"/>
<rect width="14.8004" height="14.8004" transform="matrix(0.867503 0.497432 0.00302628 0.999995 128.303 85.4492)" fill="#448BE7"/>
<rect width="14.8004" height="14.8004" transform="matrix(0.864508 -0.502619 0.00296259 0.999996 141.143 92.8096)" fill="#535AF2"/>
<rect width="14.8004" height="14.8004" transform="matrix(0.86454 -0.502563 0.867535 0.497377 128.303 85.4492)" fill="#2ED6D6"/>
<rect width="14.8004" height="14.8004" transform="matrix(0.867503 0.497432 0.00302628 0.999995 89.8022 63.3799)" fill="#448BE7"/>
<rect width="14.8004" height="14.8004" transform="matrix(0.864508 -0.502619 0.00296259 0.999996 102.642 70.7402)" fill="#535AF2"/>
<rect width="14.8004" height="14.8004" transform="matrix(0.86454 -0.502563 0.867535 0.497377 89.8022 63.3799)" fill="#2ED6D6"/>
<rect width="14.8004" height="14.8004" transform="matrix(0.867503 0.497432 0.00302628 0.999995 115.507 92.8848)" fill="#448BE7"/>
<rect width="14.8004" height="14.8004" transform="matrix(0.864508 -0.502619 0.00296259 0.999996 128.347 100.245)" fill="#535AF2"/>
<rect width="14.8004" height="14.8004" transform="matrix(0.86454 -0.502563 0.867535 0.497377 115.507 92.8848)" fill="#2ED6D6"/>
<rect width="14.8004" height="14.8004" transform="matrix(0.867503 0.497432 0.00302628 0.999995 77.0059 70.8154)" fill="#448BE7"/>
<rect width="14.8004" height="14.8004" transform="matrix(0.864508 -0.502619 0.00296259 0.999996 89.8457 78.1758)" fill="#535AF2"/>
<rect width="14.8004" height="14.8004" transform="matrix(0.86454 -0.502563 0.867535 0.497377 77.0059 70.8154)" fill="#2ED6D6"/>
<rect width="14.8004" height="14.8004" transform="matrix(0.867503 0.497432 0.00302628 0.999995 102.712 100.322)" fill="#448BE7"/>
<rect width="14.8004" height="14.8004" transform="matrix(0.864508 -0.502619 0.00296259 0.999996 115.552 107.683)" fill="#535AF2"/>
<rect width="14.8004" height="14.8004" transform="matrix(0.86454 -0.502563 0.867535 0.497377 102.712 100.322)" fill="#2ED6D6"/>
<rect width="14.8004" height="14.8004" transform="matrix(0.867503 0.497432 0.00302628 0.999995 64.2109 78.2539)" fill="#448BE7"/>
<rect width="14.8004" height="14.8004" transform="matrix(0.864508 -0.502619 0.00296259 0.999996 77.0508 85.6143)" fill="#535AF2"/>
<rect width="14.8004" height="14.8004" transform="matrix(0.86454 -0.502563 0.867535 0.497377 64.2109 78.2539)" fill="#2ED6D6"/>
<rect width="14.8004" height="14.8004" transform="matrix(0.867503 0.497432 0.00302628 0.999995 89.9165 107.758)" fill="#448BE7"/>
<rect width="14.8004" height="14.8004" transform="matrix(0.864508 -0.502619 0.00296259 0.999996 102.756 115.118)" fill="#535AF2"/>
<rect width="14.8004" height="14.8004" transform="matrix(0.86454 -0.502563 0.867535 0.497377 89.9165 107.758)" fill="#2ED6D6"/>
<rect width="14.8004" height="14.8004" transform="matrix(0.867503 0.497432 0.00302628 0.999995 51.4155 85.6895)" fill="#448BE7"/>
<rect width="14.8004" height="14.8004" transform="matrix(0.864508 -0.502619 0.00296259 0.999996 64.2554 93.0498)" fill="#535AF2"/>
<rect width="14.8004" height="14.8004" transform="matrix(0.86454 -0.502563 0.867535 0.497377 51.4155 85.6895)" fill="#2ED6D6"/>
<path d="M309.577 168.673C301.194 168.673 295.048 166.719 291.141 162.812C287.234 158.905 285.28 152.759 285.28 144.376V118.371C285.28 109.912 287.234 103.748 291.141 99.8783C295.048 95.971 301.156 94.0364 309.463 94.0743H323.234C330.29 94.0743 335.581 95.5348 339.109 98.4558C342.637 101.339 344.61 105.986 345.027 112.397C345.179 113.573 344.951 114.483 344.344 115.128C343.737 115.773 342.827 116.095 341.613 116.095C339.413 116.095 338.161 114.9 337.858 112.511C337.554 108.186 336.283 105.227 334.045 103.634C331.845 102.041 328.241 101.244 323.234 101.244H309.463C305.215 101.206 301.858 101.718 299.392 102.78C296.926 103.842 295.143 105.625 294.043 108.129C292.981 110.633 292.45 114.047 292.45 118.371V144.376C292.45 148.624 292.981 152.001 294.043 154.504C295.143 157.008 296.945 158.81 299.449 159.91C301.952 160.972 305.329 161.503 309.577 161.503H323.234C328.241 161.503 331.845 160.707 334.045 159.113C336.283 157.482 337.554 154.523 337.858 150.237C338.161 147.847 339.413 146.652 341.613 146.652C342.827 146.652 343.737 146.974 344.344 147.619C344.951 148.226 345.179 149.136 345.027 150.35C344.61 156.723 342.637 161.37 339.109 164.291C335.581 167.212 330.29 168.673 323.234 168.673H309.577ZM392.174 168.673C383.791 168.673 377.645 166.719 373.738 162.812C369.831 158.905 367.877 152.759 367.877 144.376V118.315C367.877 109.855 369.831 103.691 373.738 99.8214C377.683 95.9141 383.809 93.9984 392.117 94.0743H405.831C414.252 94.0743 420.397 96.0279 424.267 99.9352C428.174 103.805 430.128 109.95 430.128 118.371V144.376C430.128 152.759 428.174 158.905 424.267 162.812C420.397 166.719 414.252 168.673 405.831 168.673H392.174ZM392.174 161.503H405.831C410.117 161.503 413.493 160.972 415.959 159.91C418.463 158.81 420.246 157.008 421.308 154.504C422.408 152.001 422.958 148.624 422.958 144.376V118.371C422.958 114.123 422.408 110.747 421.308 108.243C420.246 105.739 418.463 103.956 415.959 102.894C413.493 101.794 410.117 101.244 405.831 101.244H392.117C387.869 101.206 384.492 101.718 381.989 102.78C379.523 103.842 377.74 105.625 376.64 108.129C375.578 110.633 375.047 114.028 375.047 118.315V144.376C375.047 148.624 375.578 152.001 376.64 154.504C377.74 157.008 379.542 158.81 382.046 159.91C384.549 160.972 387.925 161.503 392.174 161.503ZM459.55 168.673C457.16 168.673 455.965 167.478 455.965 165.088V97.6591C455.965 95.2693 457.16 94.0743 459.55 94.0743H486.976C496.574 94.0743 503.592 96.2935 508.03 100.732C512.468 105.17 514.688 112.188 514.688 121.786V140.962C514.688 150.521 512.468 157.539 508.03 162.015C503.63 166.454 496.612 168.673 486.976 168.673H459.55ZM463.134 161.503H486.976C492.06 161.503 496.1 160.858 499.097 159.569C502.093 158.241 504.237 156.079 505.526 153.082C506.854 150.047 507.518 146.007 507.518 140.962V121.786C507.518 116.74 506.854 112.719 505.526 109.722C504.237 106.688 502.093 104.525 499.097 103.236C496.1 101.908 492.06 101.244 486.976 101.244H463.134V161.503ZM544.147 168.673C541.757 168.673 540.562 167.478 540.562 165.088V97.6591C540.562 95.2693 541.757 94.0743 544.147 94.0743H586.197C588.587 94.0743 589.782 95.2693 589.782 97.6591C589.782 100.049 588.587 101.244 586.197 101.244H547.732V127.362H572.769C575.158 127.362 576.353 128.557 576.353 130.947C576.353 133.337 575.158 134.532 572.769 134.532H547.732V161.503H586.197C588.587 161.503 589.782 162.698 589.782 165.088C589.782 167.478 588.587 168.673 586.197 168.673H544.147ZM630.717 168.616C624.041 168.616 618.995 167.174 615.581 164.291C612.205 161.408 610.289 156.894 609.834 150.749C609.758 149.573 610.043 148.662 610.688 148.017C611.332 147.373 612.224 147.05 613.362 147.05C614.5 147.05 615.354 147.354 615.923 147.961C616.53 148.567 616.909 149.44 617.061 150.578C617.326 154.637 618.483 157.463 620.532 159.056C622.58 160.65 625.975 161.446 630.717 161.446H647.105C652.34 161.446 655.944 160.46 657.916 158.487C659.927 156.477 660.932 152.892 660.932 147.733C660.932 142.498 659.908 138.894 657.859 136.922C655.849 134.911 652.264 133.906 647.105 133.906H632.026C625.16 133.906 620.114 132.294 616.89 129.069C613.665 125.807 612.053 120.761 612.053 113.933C612.053 107.105 613.646 102.097 616.833 98.911C620.057 95.6865 625.084 94.0743 631.912 94.0743H647.048C653.307 94.0743 658.03 95.44 661.217 98.1713C664.441 100.865 666.281 105.094 666.736 110.86C666.85 111.998 666.584 112.909 665.939 113.592C665.295 114.237 664.384 114.559 663.208 114.559C662.108 114.559 661.254 114.256 660.648 113.649C660.041 113.004 659.68 112.131 659.566 111.031C659.263 107.351 658.163 104.81 656.266 103.406C654.369 101.965 651.297 101.244 647.048 101.244H631.912C627.056 101.244 623.718 102.173 621.897 104.032C620.114 105.853 619.223 109.153 619.223 113.933C619.223 118.713 620.133 122.051 621.954 123.948C623.813 125.807 627.17 126.736 632.026 126.736H647.105C654.275 126.736 659.566 128.443 662.981 131.857C666.395 135.233 668.102 140.525 668.102 147.733C668.102 154.903 666.395 160.175 662.981 163.552C659.604 166.928 654.312 168.616 647.105 168.616H630.717ZM716.338 168.673C707.954 168.673 701.809 166.719 697.901 162.812C693.994 158.905 692.041 152.759 692.041 144.376V118.371C692.041 109.912 693.994 103.748 697.901 99.8783C701.809 95.971 707.916 94.0364 716.224 94.0743H729.994C737.05 94.0743 742.342 95.5348 745.87 98.4558C749.398 101.339 751.37 105.986 751.788 112.397C751.939 113.573 751.712 114.483 751.105 115.128C750.498 115.773 749.587 116.095 748.374 116.095C746.173 116.095 744.921 114.9 744.618 112.511C744.315 108.186 743.044 105.227 740.806 103.634C738.605 102.041 735.002 101.244 729.994 101.244H716.224C711.975 101.206 708.618 101.718 706.152 102.78C703.686 103.842 701.904 105.625 700.803 108.129C699.741 110.633 699.21 114.047 699.21 118.371V144.376C699.21 148.624 699.741 152.001 700.803 154.504C701.904 157.008 703.705 158.81 706.209 159.91C708.713 160.972 712.089 161.503 716.338 161.503H729.994C735.002 161.503 738.605 160.707 740.806 159.113C743.044 157.482 744.315 154.523 744.618 150.237C744.921 147.847 746.173 146.652 748.374 146.652C749.587 146.652 750.498 146.974 751.105 147.619C751.712 148.226 751.939 149.136 751.788 150.35C751.37 156.723 749.398 161.37 745.87 164.291C742.342 167.212 737.05 168.673 729.994 168.673H716.338ZM798.935 168.673C790.551 168.673 784.406 166.719 780.498 162.812C776.591 158.905 774.637 152.759 774.637 144.376V118.315C774.637 109.855 776.591 103.691 780.498 99.8214C784.443 95.9141 790.57 93.9984 798.878 94.0743H812.591C821.013 94.0743 827.158 96.0279 831.027 99.9352C834.935 103.805 836.888 109.95 836.888 118.371V144.376C836.888 152.759 834.935 158.905 831.027 162.812C827.158 166.719 821.013 168.673 812.591 168.673H798.935ZM798.935 161.503H812.591C816.878 161.503 820.254 160.972 822.72 159.91C825.223 158.81 827.006 157.008 828.068 154.504C829.168 152.001 829.719 148.624 829.719 144.376V118.371C829.719 114.123 829.168 110.747 828.068 108.243C827.006 105.739 825.223 103.956 822.72 102.894C820.254 101.794 816.878 101.244 812.591 101.244H798.878C794.629 101.206 791.253 101.718 788.749 102.78C786.283 103.842 784.5 105.625 783.4 108.129C782.338 110.633 781.807 114.028 781.807 118.315V144.376C781.807 148.624 782.338 152.001 783.4 154.504C784.5 157.008 786.302 158.81 788.806 159.91C791.31 160.972 794.686 161.503 798.935 161.503ZM912.344 168.844C911.395 169.413 910.485 169.583 909.613 169.356C908.778 169.166 908.057 168.616 907.45 167.706L889.128 138.116H869.895V165.088C869.895 167.478 868.7 168.673 866.31 168.673C863.92 168.673 862.725 167.478 862.725 165.088V97.6591C862.725 95.2693 863.92 94.0743 866.31 94.0743H892.94C899.579 94.0743 904.624 95.8003 908.076 99.2524C911.528 102.704 913.254 107.75 913.254 114.388V117.802C913.254 123.606 911.908 128.197 909.214 131.573C906.559 134.949 902.633 137.016 897.435 137.775L913.596 163.95C914.772 165.961 914.354 167.592 912.344 168.844ZM869.895 130.947H892.94C897.606 130.947 900.963 129.923 903.012 127.874C905.06 125.788 906.085 122.43 906.085 117.802V114.388C906.085 109.76 905.06 106.422 903.012 104.374C900.963 102.287 897.606 101.244 892.94 101.244H869.895V130.947ZM940.683 168.673C938.293 168.673 937.098 167.478 937.098 165.088V97.6591C937.098 95.2693 938.293 94.0743 940.683 94.0743H982.733C985.123 94.0743 986.318 95.2693 986.318 97.6591C986.318 100.049 985.123 101.244 982.733 101.244H944.268V127.362H969.304C971.694 127.362 972.889 128.557 972.889 130.947C972.889 133.337 971.694 134.532 969.304 134.532H944.268V161.503H982.733C985.123 161.503 986.318 162.698 986.318 165.088C986.318 167.478 985.123 168.673 982.733 168.673H940.683Z" fill="#CFDFDF"/>
</svg>
